# xmcd CD database file
#
# Track frame offsets:
#	150
#	14865
#	28084
#	41586
#	55695
#	69156
#	80729
#	99356
#	115551
#	129639
#	142342
#
# Disc length: 2118 seconds
#
# Revision: 0
# Processed by: cddbd v1.5.1PL0 Copyright (c) Steve Scherf et al.
# Submitted via: CDex 1.51
#
DISCID=9708440b
DTITLE=Dean Miller - Platinum
DYEAR=2005
DGENRE=Country
TTITLE0=Hard Love
TTITLE1=105
TTITLE2=Ready For The Rain
TTITLE3=Whiskey Wings
TTITLE4=Stronger Than Your Love
TTITLE5=I've Been A Long Time Leaving
TTITLE6=Coming Back To You
TTITLE7=On A Good Day
TTITLE8=Right Now
TTITLE9=Yes Man
TTITLE10=Music Executive
EXTD=YEAR: 2005
EXTT0=
EXTT1=
EXTT2=
EXTT3=
EXTT4=
EXTT5=
EXTT6=
EXTT7=
EXTT8=
EXTT9=
EXTT10=
PLAYORDER=
